<svg width="286" height="83" viewBox="0 0 286 83" fill="none" xmlns="http://www.w3.org/2000/svg">
<rect x="7.02966" y="7.0293" width="278.47" height="74.7443" rx="37.3721" stroke="white"/>
<rect width="279.47" height="74.4384" rx="37.2192" fill="white"/>
<path d="M71.8948 35.4047C71.8465 30.0381 76.2901 27.4273 76.4933 27.3057C73.9767 23.6375 70.076 23.1363 68.7053 23.0964C65.4292 22.7517 62.2513 25.0562 60.5825 25.0562C58.8803 25.0562 56.3104 23.1297 53.5406 23.1863C49.9764 23.2412 46.642 25.3043 44.8132 28.5079C41.0391 35.0401 43.8539 44.6393 47.4698 49.9193C49.2785 52.5069 51.3921 55.3925 54.1585 55.2909C56.865 55.181 57.876 53.5675 61.1421 53.5675C64.3782 53.5675 65.3276 55.2909 68.149 55.226C71.0537 55.181 72.8824 52.6284 74.6279 50.0192C76.7182 47.057 77.5576 44.1365 77.5909 43.9866C77.5243 43.9633 71.9514 41.8353 71.8948 35.4047ZM66.5651 19.623C68.0207 17.8031 69.0167 15.3271 68.7403 12.8145C66.6334 12.9077 63.9985 14.2714 62.4812 16.0514C61.1388 17.6199 59.9396 20.1908 60.2494 22.6085C62.6161 22.785 65.0461 21.4146 66.5651 19.623Z" fill="#000049"/>
<path d="M111.096 54.9197H107.314L105.242 48.4108H98.0403L96.0666 54.9197H92.3841L99.5209 32.7606H103.928L111.096 54.9197ZM104.617 45.6801L102.744 39.8939C102.546 39.3028 102.172 37.9108 101.626 35.7195H101.56C101.34 36.6619 100.988 38.054 100.507 39.8939L98.6648 45.6801H104.617ZM129.414 46.7341C129.414 49.4515 128.676 51.5995 127.199 53.1763C125.876 54.58 124.232 55.281 122.272 55.281C120.155 55.281 118.633 54.5267 117.709 53.0148V61.3985H114.158V44.1931C114.158 42.4864 114.113 40.7364 114.026 38.9415H117.149L117.347 41.4741H117.414C118.598 39.5659 120.395 38.6118 122.807 38.6118C124.692 38.6118 126.266 39.3561 127.525 40.8463C128.783 42.3399 129.414 44.3014 129.414 46.7341ZM125.796 46.864C125.796 45.3088 125.447 44.0266 124.744 43.0159C123.976 41.9653 122.945 41.4391 121.653 41.4391C120.776 41.4391 119.98 41.7321 119.269 42.3099C118.556 42.8927 118.09 43.6537 117.872 44.5961C117.774 44.9486 117.719 45.3113 117.707 45.6767V48.3426C117.707 49.5031 118.063 50.4839 118.776 51.2864C119.489 52.0857 120.415 52.487 121.554 52.487C122.892 52.487 123.933 51.9691 124.677 50.9418C125.423 49.9111 125.796 48.5524 125.796 46.864ZM147.796 46.7341C147.796 49.4515 147.059 51.5995 145.581 53.1763C144.257 54.58 142.615 55.281 140.653 55.281C138.536 55.281 137.014 54.5267 136.089 53.0148V61.3985H132.538V44.1931C132.538 42.4864 132.493 40.7364 132.407 38.9415H135.53L135.728 41.4741H135.795C136.977 39.5659 138.774 38.6118 141.188 38.6118C143.071 38.6118 144.645 39.3561 145.908 40.8463C147.163 42.3399 147.796 44.3014 147.796 46.7341ZM144.177 46.864C144.177 45.3088 143.826 44.0266 143.123 43.0159C142.355 41.9653 141.327 41.4391 140.035 41.4391C139.159 41.4391 138.363 41.7321 137.648 42.3099C136.935 42.8927 136.471 43.6537 136.253 44.5961C136.144 45.0357 136.086 45.3937 136.086 45.6767V48.3426C136.086 49.5031 136.444 50.4839 137.154 51.2864C137.866 52.084 138.792 52.487 139.935 52.487C141.274 52.487 142.315 51.9691 143.058 50.9418C143.804 49.9111 144.177 48.5524 144.177 46.864ZM168.349 48.7039C168.349 50.5904 167.689 52.124 166.379 53.3078C164.936 54.6 162.923 55.2477 160.341 55.2477C157.956 55.2477 156.044 54.7881 154.602 53.8673L155.423 50.9085C156.98 51.8309 158.691 52.2905 160.553 52.2905C161.892 52.2905 162.933 51.9874 163.676 51.3863C164.42 50.7836 164.796 49.9777 164.796 48.972C164.796 48.0711 164.485 47.3169 163.874 46.7024C163.259 46.0897 162.243 45.5186 160.816 44.9941C156.935 43.5471 154.993 41.4308 154.993 38.6467C154.993 36.8285 155.679 35.3399 157.048 34.176C158.417 33.0137 160.233 32.4326 162.491 32.4326C164.508 32.4326 166.189 32.784 167.523 33.485L166.632 36.3789C165.376 35.6995 163.959 35.3598 162.373 35.3598C161.121 35.3598 160.138 35.6679 159.435 36.2806C158.844 36.8285 158.544 37.4962 158.544 38.2887C158.544 39.1629 158.885 39.8889 159.565 40.4584C160.155 40.9829 161.231 41.554 162.786 42.1667C164.695 42.936 166.097 43.8318 166.995 44.8608C167.899 45.8899 168.349 47.1737 168.349 48.7039ZM180.119 41.6056H176.205V49.3633C176.205 51.3364 176.895 52.3205 178.277 52.3205C178.912 52.3205 179.438 52.2672 179.854 52.1556L179.953 54.8514C179.253 55.1128 178.332 55.2443 177.191 55.2443C175.789 55.2443 174.693 54.8164 173.902 53.9606C173.114 53.1047 172.718 51.6711 172.718 49.653V41.5989H170.386V38.9348H172.718V36.0092L176.205 34.9569V38.9348H180.119V41.6056ZM197.744 46.799C197.744 49.255 197.041 51.2714 195.639 52.8483C194.171 54.4717 192.219 55.281 189.786 55.281C187.438 55.281 185.571 54.5034 184.178 52.9499C182.786 51.393 182.09 49.4315 182.09 47.0654C182.09 44.5894 182.809 42.5614 184.243 40.9845C185.681 39.406 187.616 38.6168 190.049 38.6168C192.394 38.6168 194.278 39.396 195.704 40.9512C197.066 42.4598 197.744 44.4079 197.744 46.799ZM194.063 46.8806C194.063 45.417 193.747 44.1615 193.112 43.1108C192.368 41.842 191.302 41.2076 189.921 41.2076C188.499 41.2076 187.408 41.842 186.665 43.1108C186.029 44.1615 185.712 45.4386 185.712 46.9472C185.712 48.4125 186.029 49.6713 186.665 50.7186C187.433 51.9874 188.504 52.6218 189.891 52.6218C191.248 52.6218 192.313 51.9741 193.082 50.687C193.735 49.6114 194.063 48.3475 194.063 46.8806ZM209.291 42.0635C208.922 41.9968 208.547 41.964 208.172 41.9653C206.923 41.9653 205.957 42.4348 205.277 43.3806C204.688 44.2131 204.391 45.2655 204.391 46.5359V54.9197H200.84V43.9734C200.843 42.296 200.809 40.6189 200.737 38.9431H203.83L203.96 42.0002H204.058C204.434 40.9496 205.024 40.102 205.833 39.4676C206.574 38.9133 207.475 38.6131 208.4 38.6118C208.728 38.6118 209.025 38.6351 209.288 38.6767L209.291 42.0635ZM225.172 46.1746C225.181 46.7143 225.137 47.2535 225.042 47.7847H214.389C214.429 49.3633 214.946 50.5721 215.935 51.4047C216.833 52.1473 217.994 52.5203 219.419 52.5203C220.996 52.5203 222.435 52.2705 223.73 51.766L224.286 54.2286C222.774 54.888 220.988 55.216 218.928 55.216C216.45 55.216 214.504 54.4867 213.089 53.0314C211.676 51.5745 210.968 49.6163 210.968 47.1637C210.968 44.7559 211.626 42.7495 212.944 41.1494C214.323 39.441 216.186 38.5868 218.531 38.5868C220.835 38.5868 222.579 39.441 223.763 41.1494C224.701 42.5031 225.172 44.1815 225.172 46.1746ZM221.786 45.2538C221.811 44.1998 221.578 43.2923 221.096 42.5247C220.482 41.5357 219.536 41.0428 218.268 41.0428C217.107 41.0428 216.161 41.524 215.442 42.4898C214.851 43.2574 214.499 44.1798 214.391 45.2505L221.786 45.2538Z" fill="#000049"/>
<path d="M97.016 24.9264C96.0283 24.9264 95.1739 24.8781 94.4627 24.7965V14.0834C95.4574 13.9297 96.4626 13.854 97.469 13.8569C101.541 13.8569 103.417 15.86 103.417 19.1252C103.417 22.8917 101.201 24.9264 97.016 24.9264ZM97.6123 15.2306C97.0626 15.2306 96.5946 15.2639 96.2065 15.3438V23.4878C96.4164 23.5211 96.8195 23.5361 97.3857 23.5361C100.054 23.5361 101.573 22.0175 101.573 19.1735C101.573 16.6376 100.199 15.2306 97.6123 15.2306ZM109.261 25.008C106.966 25.008 105.479 23.2946 105.479 20.9685C105.479 18.5441 106.998 16.8158 109.391 16.8158C111.653 16.8158 113.173 18.4476 113.173 20.8403C113.173 23.2946 111.606 25.008 109.261 25.008ZM109.328 18.0912C108.067 18.0912 107.259 19.2701 107.259 20.9185C107.259 22.5353 108.083 23.7142 109.311 23.7142C110.538 23.7142 111.363 22.4538 111.363 20.8852C111.363 19.2868 110.555 18.0912 109.328 18.0912ZM126.261 16.9773L123.804 24.8298H122.204L121.186 21.4197C120.933 20.5856 120.722 19.7392 120.555 18.8838H120.522C120.393 19.7397 120.15 20.5972 119.892 21.4197L118.809 24.8298H117.192L114.88 16.9773H116.674L117.564 20.7104C117.774 21.5996 117.95 22.4388 118.097 23.2314H118.13C118.258 22.5703 118.468 21.7444 118.776 20.7271L119.892 16.9789H121.314L122.382 20.6471C122.64 21.5363 122.85 22.4088 123.013 23.233H123.06C123.173 22.4255 123.351 21.5679 123.593 20.6471L124.547 16.9789L126.261 16.9773ZM135.305 24.8298H133.559V20.3208C133.559 18.9321 133.026 18.2361 131.975 18.2361C130.941 18.2361 130.23 19.1252 130.23 20.1593V24.8298H128.485V19.2218C128.485 18.5275 128.468 17.7832 128.42 16.9756H129.955L130.037 18.1878H130.085C130.555 17.3486 131.507 16.8158 132.575 16.8158C134.224 16.8158 135.307 18.0762 135.307 20.1276L135.305 24.8298ZM140.118 24.8298H138.371V13.374H140.118V24.8298ZM146.482 25.008C144.189 25.008 142.7 23.2946 142.7 20.9685C142.7 18.5441 144.219 16.8158 146.611 16.8158C148.874 16.8158 150.393 18.4476 150.393 20.8403C150.395 23.2946 148.826 25.008 146.482 25.008ZM146.547 18.0912C145.286 18.0912 144.479 19.2701 144.479 20.9185C144.479 22.5353 145.305 23.7142 146.529 23.7142C147.758 23.7142 148.581 22.4538 148.581 20.8852C148.582 19.2868 147.776 18.0912 146.547 18.0912ZM157.275 24.8298L157.148 23.9257H157.102C156.569 24.6533 155.791 25.008 154.805 25.008C153.398 25.008 152.398 24.0223 152.398 22.6969C152.398 20.7587 154.079 19.7563 156.988 19.7563V19.6115C156.988 18.5774 156.44 18.0596 155.358 18.0596C154.583 18.0596 153.904 18.2544 153.306 18.6424L152.951 17.4951C153.677 17.0422 154.583 16.8158 155.648 16.8158C157.7 16.8158 158.736 17.8981 158.736 20.0644V22.9566C158.736 23.7492 158.771 24.3636 158.849 24.8315L157.275 24.8298ZM157.035 20.9185C155.096 20.9185 154.124 21.3881 154.124 22.502C154.124 23.3263 154.625 23.7292 155.321 23.7292C156.209 23.7292 157.035 23.0515 157.035 22.1307V20.9185ZM167.211 24.8298L167.13 23.5694H167.082C166.58 24.5218 165.737 25.008 164.56 25.008C162.666 25.008 161.264 23.3429 161.264 21.0001C161.264 18.5441 162.718 16.8141 164.703 16.8141C165.754 16.8141 166.499 17.1688 166.918 17.8814H166.953V13.374H168.7V22.7135C168.7 23.4728 168.719 24.1838 168.765 24.8298H167.211ZM166.953 20.2092C166.953 19.1103 166.225 18.1728 165.115 18.1728C163.82 18.1728 163.029 19.3201 163.029 20.9352C163.029 22.5187 163.85 23.6027 165.08 23.6027C166.177 23.6027 166.953 22.6486 166.953 21.518V20.2092ZM179.778 25.008C177.484 25.008 175.997 23.2946 175.997 20.9685C175.997 18.5441 177.516 16.8158 179.908 16.8158C182.171 16.8158 183.69 18.4476 183.69 20.8403C183.692 23.2946 182.125 25.008 179.778 25.008ZM179.843 18.0912C178.584 18.0912 177.776 19.2701 177.776 20.9185C177.776 22.5353 178.6 23.7142 179.826 23.7142C181.055 23.7142 181.878 22.4538 181.878 20.8852C181.881 19.2868 181.074 18.0912 179.843 18.0912ZM193.077 24.8298H191.33V20.3208C191.33 18.9321 190.797 18.2361 189.746 18.2361C188.712 18.2361 188.002 19.1252 188.002 20.1593V24.8298H186.255V19.2218C186.255 18.5275 186.238 17.7832 186.19 16.9756H187.726L187.807 18.1878H187.856C188.324 17.3486 189.278 16.8141 190.344 16.8141C191.993 16.8141 193.077 18.0746 193.077 20.126V24.8298ZM204.821 18.286H202.9V22.0991C202.9 23.0698 203.237 23.5544 203.916 23.5544C204.225 23.5544 204.483 23.5211 204.691 23.4728L204.739 24.7982C204.401 24.9281 203.948 24.993 203.385 24.993C202.009 24.993 201.187 24.2337 201.187 22.2456V18.286H200.041V16.9773H201.187V15.5386L202.9 15.0208V16.9756H204.821V18.286ZM214.061 24.8298H212.317V20.3541C212.317 18.9487 211.786 18.2378 210.733 18.2378C209.829 18.2378 208.986 18.8522 208.986 20.096V24.8298H207.243V13.374H208.986V18.0912H209.021C209.571 17.2354 210.367 16.8141 211.383 16.8141C213.045 16.8141 214.061 18.1062 214.061 20.1593V24.8298ZM223.528 21.3232H218.29C218.323 22.8101 219.308 23.6493 220.765 23.6493C221.539 23.6493 222.252 23.5194 222.882 23.278L223.153 24.4902C222.41 24.8132 221.536 24.9747 220.518 24.9747C218.062 24.9747 216.608 23.4228 216.608 21.0168C216.608 18.6091 218.097 16.7991 220.322 16.7991C222.329 16.7991 223.588 18.286 223.588 20.5322C223.599 20.7973 223.579 21.0628 223.528 21.3232ZM221.927 20.0793C221.927 18.8672 221.316 18.0113 220.2 18.0113C219.198 18.0113 218.405 18.8838 218.292 20.0793H221.927Z" fill="#000049"/>
</svg>
