<svg width="189" height="189" viewBox="0 0 189 189" fill="none" xmlns="http://www.w3.org/2000/svg">
<g clip-path="url(#clip0_154_286)">
<path d="M73.1101 140.54C61.5201 144.95 52.29 144.9 47.78 140.38L41.3 146.86C48.58 154.14 61.0401 154.93 76.3701 149.08C90.5101 143.7 105.83 133.2 119.52 119.51L113.04 113.03C100.24 125.83 86.07 135.59 73.1 140.54H73.1101Z" fill="#B1FF85"/>
<path d="M68.6599 69.71L74.0799 75.13C61.4799 87.85 51.8499 101.92 46.9299 114.8C42.5799 126.23 42.5199 135.48 46.7499 140.38L41.3199 145.81C34.7399 138.68 34.1899 126.74 39.7799 112.07C45.0699 98.21 55.3099 83.2 68.6599 69.72M68.6599 68.66C54.9699 82.35 44.4699 97.67 39.0799 111.8C33.2299 127.14 34.0199 139.6 41.3099 146.88L47.7899 140.4C43.2799 135.89 43.2199 126.65 47.6299 115.07C52.5799 102.1 62.3399 87.93 75.1399 75.13L68.6599 68.65V68.66Z" fill="#B1FF85"/>
<path d="M146.86 41.31L140.4 47.77C135.89 43.26 126.65 43.21 115.05 47.64C102.1 52.58 87.9199 62.34 75.1299 75.13L68.6499 68.65C82.3199 54.98 97.6499 44.47 111.78 39.08C127.11 33.24 139.57 34.03 146.85 41.31H146.86Z" fill="#B1FF85"/>
<path d="M146.85 42.38C153.42 49.51 153.97 61.44 148.39 76.11C143.11 89.97 132.87 104.99 119.53 118.46L114.11 113.04C126.71 100.31 136.34 86.26 141.24 73.39C145.6 61.94 145.66 52.68 141.45 47.79L146.86 42.38M146.87 41.31L140.41 47.77C144.92 52.28 144.96 61.52 140.54 73.12C135.6 86.07 125.84 100.25 113.05 113.04L119.53 119.52C133.2 105.85 143.71 90.52 149.09 76.38C154.93 61.05 154.15 48.6 146.86 41.32L146.87 41.31Z" fill="#B1FF85"/>
<path d="M126.98 128.04L132.99 134.05C99.87 166.99 62.27 187.42 34.72 187.42C24.45 187.42 16.24 184.57 10.3 178.93L16.31 172.92C20.7 177 26.9 179.06 34.75 179.06C59.25 179.06 96.24 158.58 126.97 128.04M126.97 126.98C95.16 158.79 58.49 178.31 34.75 178.31C27.03 178.31 20.67 176.25 16.3 171.87L9.22998 178.94C15.49 185.2 24.27 188.17 34.72 188.17C61.69 188.17 99.76 168.35 134.05 134.05L126.98 126.98H126.97Z" fill="#B1FF85"/>
<path d="M54.1199 54.12L61.1899 61.19C39.9599 82.42 23.7199 106.01 15.4899 127.61C7.86994 147.6 8.15994 163.73 16.2999 171.87L9.22994 178.94C-13.1901 156.52 6.53994 101.7 54.1199 54.12Z" fill="#B1FF85"/>
<path d="M153.45 0.75C163.72 0.75 171.93 3.61 177.87 9.24L171.86 15.25C167.58 11.31 161.21 9.23 153.39 9.23C145.79 9.23 137.02 11.1 127.34 14.79C105.83 22.99 82.3699 39.07 61.1999 60.12L55.1899 54.11C88.2999 21.19 125.9 0.75 153.45 0.75ZM153.45 0C126.48 0 88.4199 19.82 54.1199 54.12L61.1899 61.19C82.4199 39.96 106.01 23.73 127.6 15.5C137.25 11.82 146 9.98 153.39 9.98C161.31 9.98 167.66 12.09 171.87 16.3L178.94 9.23C172.68 2.97 163.9 0 153.45 0Z" fill="#B1FF85"/>
<path d="M178.94 9.23C201.35 31.64 181.63 86.47 134.05 134.05L126.98 126.98C169.14 84.82 189.7 34.14 171.87 16.3L178.94 9.23Z" fill="#B1FF85"/>
</g>
<defs>
<clipPath id="clip0_154_286">
<rect width="188.17" height="188.54" fill="white"/>
</clipPath>
</defs>
</svg>
