<svg width="32" height="32" viewBox="0 0 32 32" fill="none" xmlns="http://www.w3.org/2000/svg">
<rect width="32" height="32" rx="16" fill="#CCCCDB"/>
<path fill-rule="evenodd" clip-rule="evenodd" d="M7 11C7 8.79086 8.79086 7 11 7H21C23.2091 7 25 8.79086 25 11V21C25 23.2091 23.2091 25 21 25H11C8.79086 25 7 23.2091 7 21V11ZM21 16C21 18.7614 18.7614 21 16 21C13.2386 21 11 18.7614 11 16C11 13.2386 13.2386 11 16 11C18.7614 11 21 13.2386 21 16ZM23 10.5C23 11.3284 22.3284 12 21.5 12C20.6716 12 20 11.3284 20 10.5C20 9.67157 20.6716 9 21.5 9C22.3284 9 23 9.67157 23 10.5ZM21.875 10.5C21.875 10.7071 21.7071 10.875 21.5 10.875C21.2929 10.875 21.125 10.7071 21.125 10.5C21.125 10.2929 21.2929 10.125 21.5 10.125C21.7071 10.125 21.875 10.2929 21.875 10.5Z" fill="#000049"/>
</svg>
