<svg width="286" height="83" viewBox="0 0 286 83" fill="none" xmlns="http://www.w3.org/2000/svg">
<g clip-path="url(#clip0_348_258)">
<path d="M44.4018 7.0293H248.128C268.768 7.0293 285.5 23.7614 285.5 44.4014V44.4015C285.5 65.0415 268.768 81.7736 248.128 81.7736H44.4018C23.7617 81.7736 7.02968 65.0415 7.02968 44.4015V44.4014C7.02968 23.7614 23.7617 7.0293 44.4018 7.0293Z" stroke="white"/>
<path d="M242.251 0H37.2192C16.6636 0 0 16.6636 0 37.2192C0 57.7748 16.6636 74.4384 37.2192 74.4384H242.251C262.806 74.4384 279.47 57.7748 279.47 37.2192C279.47 16.6636 262.806 0 242.251 0Z" fill="white"/>
<path d="M102.461 18.9554C102.461 20.3954 102.101 21.6553 101.201 22.5553C100.121 23.6353 98.861 24.1752 97.241 24.1752C95.621 24.1752 94.3611 23.6353 93.2811 22.5553C92.2011 21.4753 91.6612 20.2154 91.6612 18.5954C91.6612 16.9755 92.2011 15.7155 93.2811 14.6355C94.3611 13.5556 95.621 13.0156 97.241 13.0156C97.961 13.0156 98.681 13.1956 99.4009 13.5556C100.121 13.9155 100.661 14.2755 101.021 14.8155L100.121 15.7155C99.4009 14.8155 98.501 14.4555 97.241 14.4555C96.161 14.4555 95.0811 14.8155 94.3611 15.7155C93.4611 16.4355 93.1011 17.5154 93.1011 18.7754C93.1011 20.0354 93.4611 21.1153 94.3611 21.8353C95.2611 22.5553 96.161 23.0953 97.241 23.0953C98.501 23.0953 99.4009 22.7353 100.301 21.8353C100.841 21.2953 101.201 20.5753 101.201 19.6754H97.241V18.2354H102.461V18.9554ZM110.741 14.4555H105.881V17.8754H110.381V19.1354H105.881V22.5553H110.741V23.9952H104.441V13.1956H110.741V14.4555ZM116.68 23.9952H115.24V14.4555H112.181V13.1956H119.74V14.4555H116.68V23.9952ZM124.96 23.9952V13.1956H126.4V23.9952H124.96ZM132.52 23.9952H131.08V14.4555H128.02V13.1956H135.4V14.4555H132.34V23.9952H132.52ZM149.619 22.5553C148.539 23.6353 147.28 24.1752 145.66 24.1752C144.04 24.1752 142.78 23.6353 141.7 22.5553C140.62 21.4753 140.08 20.2154 140.08 18.5954C140.08 16.9755 140.62 15.7155 141.7 14.6355C142.78 13.5556 144.04 13.0156 145.66 13.0156C147.28 13.0156 148.539 13.5556 149.619 14.6355C150.699 15.7155 151.239 16.9755 151.239 18.5954C151.239 20.2154 150.699 21.4753 149.619 22.5553ZM142.78 21.6553C143.5 22.3753 144.58 22.9153 145.66 22.9153C146.74 22.9153 147.82 22.5553 148.539 21.6553C149.259 20.9353 149.799 19.8554 149.799 18.5954C149.799 17.3354 149.439 16.2555 148.539 15.5355C147.82 14.8155 146.74 14.2755 145.66 14.2755C144.58 14.2755 143.5 14.6355 142.78 15.5355C142.06 16.2555 141.52 17.3354 141.52 18.5954C141.52 19.8554 141.88 20.9353 142.78 21.6553ZM153.219 23.9952V13.1956H154.839L160.059 21.6553V13.1956H161.499V23.9952H160.059L154.479 15.1755V23.9952H153.219Z" fill="#000049" stroke="#000049" stroke-width="1.18519" stroke-miterlimit="10"/>
<path d="M139.72 39.8347C135.4 39.8347 131.98 43.0746 131.98 47.5745C131.98 51.8944 135.4 55.3143 139.72 55.3143C144.04 55.3143 147.46 52.0744 147.46 47.5745C147.46 42.8946 144.04 39.8347 139.72 39.8347ZM139.72 52.0744C137.38 52.0744 135.4 50.0944 135.4 47.3945C135.4 44.6946 137.38 42.7146 139.72 42.7146C142.06 42.7146 144.04 44.5146 144.04 47.3945C144.04 50.0944 142.06 52.0744 139.72 52.0744ZM122.98 39.8347C118.66 39.8347 115.241 43.0746 115.241 47.5745C115.241 51.8944 118.66 55.3143 122.98 55.3143C127.3 55.3143 130.72 52.0744 130.72 47.5745C130.72 42.8946 127.3 39.8347 122.98 39.8347ZM122.98 52.0744C120.64 52.0744 118.66 50.0944 118.66 47.3945C118.66 44.6946 120.64 42.7146 122.98 42.7146C125.32 42.7146 127.3 44.5146 127.3 47.3945C127.3 50.0944 125.32 52.0744 122.98 52.0744ZM103.001 42.1747V45.4146H110.741C110.561 47.2145 109.841 48.6545 108.941 49.5544C107.861 50.6344 106.061 51.8944 103.001 51.8944C98.141 51.8944 94.5411 48.1145 94.5411 43.2546C94.5411 38.3948 98.321 34.6149 103.001 34.6149C105.521 34.6149 107.501 35.6948 108.941 36.9548L111.281 34.6149C109.301 32.8149 106.781 31.375 103.181 31.375C96.7011 31.375 91.1212 36.7748 91.1212 43.2546C91.1212 49.7344 96.7011 55.1343 103.181 55.1343C106.781 55.1343 109.301 54.0543 111.461 51.7144C113.621 49.5544 114.341 46.4945 114.341 44.1546C114.341 43.4346 114.341 42.7146 114.161 42.1747H103.001ZM184.719 44.6946C183.999 42.8946 182.199 39.8347 178.239 39.8347C174.279 39.8347 171.039 42.8946 171.039 47.5745C171.039 51.8944 174.279 55.3143 178.599 55.3143C182.019 55.3143 184.179 53.1543 184.898 51.8944L182.379 50.0944C181.479 51.3544 180.399 52.2544 178.599 52.2544C176.799 52.2544 175.719 51.5344 174.819 49.9144L185.078 45.5945L184.719 44.6946ZM174.279 47.2145C174.279 44.3346 176.619 42.7146 178.239 42.7146C179.499 42.7146 180.759 43.4346 181.119 44.3346L174.279 47.2145ZM165.819 54.5943H169.239V32.0949H165.819V54.5943ZM160.419 41.4547C159.519 40.5547 158.079 39.6547 156.279 39.6547C152.499 39.6547 148.9 43.0746 148.9 47.3945C148.9 51.7144 152.319 54.9543 156.279 54.9543C158.079 54.9543 159.519 54.0543 160.239 53.1543H160.419V54.2343C160.419 57.1142 158.799 58.7342 156.279 58.7342C154.299 58.7342 152.859 57.2942 152.499 56.0342L149.62 57.2942C150.519 59.2741 152.679 61.7941 156.459 61.7941C160.419 61.7941 163.659 59.4541 163.659 53.8743V40.1947H160.419V41.4547ZM156.459 52.0744C154.119 52.0744 152.139 50.0944 152.139 47.3945C152.139 44.6946 154.119 42.7146 156.459 42.7146C158.799 42.7146 160.599 44.6946 160.599 47.3945C160.599 50.0944 158.799 52.0744 156.459 52.0744ZM200.378 32.0949H192.278V54.5943H195.698V46.1345H200.378C204.158 46.1345 207.758 43.4346 207.758 39.1147C207.758 34.7949 204.158 32.0949 200.378 32.0949ZM200.558 42.8946H195.698V35.1549H200.558C203.078 35.1549 204.518 37.3148 204.518 38.9347C204.338 40.9147 202.898 42.8946 200.558 42.8946ZM221.257 39.6547C218.738 39.6547 216.218 40.7347 215.318 43.0746L218.378 44.3346C219.098 43.0746 220.177 42.7146 221.437 42.7146C223.237 42.7146 224.857 43.7946 225.037 45.5945V45.7745C224.497 45.4146 223.057 44.8746 221.617 44.8746C218.378 44.8746 215.138 46.6745 215.138 49.9144C215.138 52.9743 217.838 54.9543 220.717 54.9543C223.057 54.9543 224.137 53.8743 225.037 52.7943H225.217V54.5943H228.457V45.9545C228.097 41.9947 225.037 39.6547 221.257 39.6547ZM220.897 52.0744C219.817 52.0744 218.198 51.5344 218.198 50.0944C218.198 48.2945 220.177 47.7545 221.797 47.7545C223.237 47.7545 223.957 48.1145 224.857 48.4745C224.497 50.6344 222.697 52.0744 220.897 52.0744ZM239.797 40.1947L236.017 49.9144H235.837L231.877 40.1947H228.277L234.217 53.8743L230.797 61.4341H234.217L243.397 40.1947H239.797ZM209.558 54.5943H212.978V32.0949H209.558V54.5943Z" fill="#000049"/>
<path d="M35.8628 14.0957C35.3228 14.6357 35.1428 15.5357 35.1428 16.6157V56.3945C35.1428 57.4745 35.5028 58.3745 36.0428 58.9144L36.2228 59.0944L58.5421 36.7751V36.4151L35.8628 14.0957Z" fill="url(#paint0_linear_348_258)"/>
<path d="M65.7419 44.3348L58.3621 36.955V36.415L65.7419 29.0352L65.9219 29.2152L74.7416 34.255C77.2616 35.695 77.2616 38.0349 74.7416 39.4749L65.7419 44.3348Z" fill="url(#paint1_linear_348_258)"/>
<path d="M65.9219 44.1545L58.3621 36.5947L35.8627 59.0941C36.7627 59.994 38.0227 59.994 39.6426 59.274L65.9219 44.1545Z" fill="url(#paint2_linear_348_258)"/>
<path d="M65.9219 29.0351L39.6426 14.0956C38.0227 13.1956 36.7627 13.3756 35.8627 14.2756L58.3621 36.5949L65.9219 29.0351Z" fill="url(#paint3_linear_348_258)"/>
<path opacity="0.2" d="M65.7419 43.9746L39.6426 58.7341C38.2027 59.6341 36.9427 59.4541 36.0427 58.7341L35.8627 58.9141L36.0427 59.0941C36.9427 59.8141 38.2027 59.9941 39.6426 59.0941L65.7419 43.9746Z" fill="black"/>
<path opacity="0.12" d="M35.8628 58.7341C35.3228 58.1941 35.1428 57.2941 35.1428 56.2141V56.3941C35.1428 57.4741 35.5028 58.3741 36.0428 58.9141V58.7341H35.8628ZM74.7417 38.9346L65.7419 43.9745L65.9219 44.1545L74.7417 39.1146C76.0016 38.3947 76.5416 37.4947 76.5416 36.5947C76.5416 37.4947 75.8216 38.2147 74.7417 38.9346Z" fill="black"/>
<path opacity="0.25" d="M39.6427 14.2759L74.7417 34.2554C75.8216 34.9753 76.5416 35.6953 76.5416 36.5953C76.5416 35.6953 76.0016 34.7953 74.7417 34.0754L39.6427 14.096C37.1228 12.656 35.1428 13.736 35.1428 16.6159V16.7959C35.1428 14.096 37.1228 12.836 39.6427 14.2759Z" fill="#000049"/>
</g>
<defs>
<linearGradient id="paint0_linear_348_258" x1="56.3822" y1="16.2737" x2="26.1737" y2="46.4804" gradientUnits="userSpaceOnUse">
<stop stop-color="#00A0FF"/>
<stop offset="0.007" stop-color="#00A1FF"/>
<stop offset="0.26" stop-color="#00BEFF"/>
<stop offset="0.512" stop-color="#00D2FF"/>
<stop offset="0.76" stop-color="#00DFFF"/>
<stop offset="1" stop-color="#00E3FF"/>
</linearGradient>
<linearGradient id="paint1_linear_348_258" x1="78.0427" y1="36.5968" x2="34.4894" y2="36.5968" gradientUnits="userSpaceOnUse">
<stop stop-color="#FFE000"/>
<stop offset="0.409" stop-color="#FFBD00"/>
<stop offset="0.775" stop-color="#FFA500"/>
<stop offset="1" stop-color="#FF9C00"/>
</linearGradient>
<linearGradient id="paint2_linear_348_258" x1="61.8306" y1="40.7274" x2="20.8674" y2="81.6906" gradientUnits="userSpaceOnUse">
<stop stop-color="#FF3A44"/>
<stop offset="1" stop-color="#C31162"/>
</linearGradient>
<linearGradient id="paint3_linear_348_258" x1="30.2775" y1="0.912758" x2="48.5704" y2="19.2056" gradientUnits="userSpaceOnUse">
<stop stop-color="#32A071"/>
<stop offset="0.069" stop-color="#2DA771"/>
<stop offset="0.476" stop-color="#15CF74"/>
<stop offset="0.801" stop-color="#06E775"/>
<stop offset="1" stop-color="#00F076"/>
</linearGradient>
<clipPath id="clip0_348_258">
<rect width="286" height="83" fill="white"/>
</clipPath>
</defs>
</svg>
