<svg width="48" height="48" viewBox="0 0 48 48" fill="none" xmlns="http://www.w3.org/2000/svg">
<path d="M17.9033 16.7408C17.5823 16.4197 17.0618 16.4197 16.7408 16.7408C16.4197 17.0618 16.4197 17.5823 16.7408 17.9033L22.8375 24L16.7408 30.0967C16.4197 30.4177 16.4197 30.9382 16.7408 31.2592C17.0618 31.5803 17.5823 31.5803 17.9033 31.2592L24 25.1625L30.0967 31.2592C30.4177 31.5803 30.9382 31.5803 31.2592 31.2592C31.5803 30.9382 31.5803 30.4177 31.2592 30.0967L25.1625 24L31.2592 17.9033C31.5803 17.5823 31.5803 17.0618 31.2592 16.7408C30.9382 16.4197 30.4177 16.4197 30.0967 16.7408L24 22.8375L17.9033 16.7408Z" fill="black"/>
</svg>
