<svg width="24" height="24" viewBox="0 0 24 24" fill="none" xmlns="http://www.w3.org/2000/svg">
<path fill-rule="evenodd" clip-rule="evenodd" d="M10.5091 12.2036C8.11251 12.2036 6.16675 14.1493 6.16675 16.5459C6.16675 17.4607 6.90958 18.2036 7.82438 18.2036H16.1758C17.0906 18.2036 17.8334 17.4607 17.8334 16.5459C17.8334 14.1493 15.8876 12.2036 13.4911 12.2036H10.5091ZM7.04964 16.5459C7.04964 14.637 8.60012 13.0865 10.5091 13.0865H13.4911C15.4 13.0865 16.9505 14.637 16.9505 16.5459C16.9505 16.9731 16.603 17.3207 16.1758 17.3207H7.82438C7.39718 17.3207 7.04964 16.9731 7.04964 16.5459Z" fill="#000049"/>
<path fill-rule="evenodd" clip-rule="evenodd" d="M8.89043 8.69262C8.89043 6.97543 10.2825 5.58337 11.9997 5.58337C13.7169 5.58337 15.1089 6.97543 15.1089 8.69262C15.1089 10.4098 13.7169 11.8019 11.9997 11.8019C10.2825 11.8019 8.89043 10.4098 8.89043 8.69262ZM9.77332 8.69262C9.77332 7.46304 10.7701 6.46626 11.9997 6.46626C13.2293 6.46626 14.226 7.46304 14.226 8.69262C14.226 9.9222 13.2293 10.919 11.9997 10.919C10.7701 10.919 9.77332 9.9222 9.77332 8.69262Z" fill="#000049"/>
<path d="M11.9997 6.46626C10.7701 6.46626 9.77332 7.46304 9.77332 8.69262C9.77332 9.9222 10.7701 10.919 11.9997 10.919C13.2293 10.919 14.226 9.9222 14.226 8.69262C14.226 7.46304 13.2293 6.46626 11.9997 6.46626Z" fill="#000049"/>
<path d="M10.5091 13.0865C8.60012 13.0865 7.04964 14.637 7.04964 16.5459C7.04964 16.9731 7.39718 17.3207 7.82438 17.3207H16.1758C16.603 17.3207 16.9505 16.9731 16.9505 16.5459C16.9505 14.637 15.4 13.0865 13.4911 13.0865H10.5091Z" fill="#000049"/>
</svg>
