<svg width="24" height="24" viewBox="0 0 24 24" fill="none" xmlns="http://www.w3.org/2000/svg">
<path d="M17.8334 10.9894L16.7011 9.68012L16.4564 7.96744L14.7966 7.47859L13.665 6.16934L12.0038 6.65548L10.344 6.16663L9.2097 7.47317L7.54923 7.95931L7.30107 9.67198L6.16675 10.9785L6.88409 12.5536L6.63661 14.2656L8.09164 15.2026L8.80899 16.7776L10.5393 16.779L11.9943 17.716L13.4507 16.7817L15.181 16.783L15.9011 15.21L17.3581 14.2757L17.1134 12.5624L17.8334 10.9894ZM14.9973 9.70317L9.66261 14.8615C9.5704 14.9504 9.45175 14.9951 9.3331 14.9951C9.21444 14.9951 9.08494 14.9463 8.99205 14.85C8.80966 14.6615 8.81441 14.3612 9.0029 14.1795L14.3376 9.02108C14.526 8.8387 14.8264 8.84412 15.0081 9.03261C15.1905 9.2211 15.1858 9.52146 14.9973 9.70317Z" fill="black"/>
</svg>
