<svg width="96" height="20" viewBox="0 0 96 20" fill="none" xmlns="http://www.w3.org/2000/svg">
<g clip-path="url(#clip0_378_267)" filter="url(#filter0_i_378_267)">
<path d="M75.2033 13.9057C75.2033 15.5904 74.5122 17.1159 73.3927 18.2195C72.3139 19.2859 70.8332 19.9552 69.1978 19.9985C69.1446 20 62.215 19.9985 62.215 19.9985H62.0946C59.718 19.9985 57.7901 18.0943 57.7901 15.7434C57.7901 14.9258 58.0231 14.1623 58.4281 13.5147C58.8831 12.7852 59.8306 12.5023 60.6076 12.8825C61.1189 13.1329 61.6615 13.3261 62.229 13.4575C62.4855 13.5162 62.745 13.5626 63.0092 13.5966C63.3845 13.643 63.7363 13.3818 63.791 13.0124V12.9985C63.8504 12.6167 63.5784 12.2767 63.1906 12.2288C62.9358 12.1979 62.6856 12.1515 62.4417 12.0897C61.982 11.9753 61.5426 11.8099 61.1299 11.5997C59.1457 10.5858 57.7886 8.53943 57.7886 6.18085C57.7886 3.17003 59.9963 0.66771 62.9014 0.174665C63.2438 0.115932 63.594 0.0850206 63.9536 0.0850206H70.6315C70.7191 0.0803838 71.0756 0.0803838 71.1631 0.0850206C71.9918 0.13448 72.7564 0.414232 73.3927 0.864C74.4872 1.63371 75.2033 2.89955 75.2033 4.33077C75.2033 5.16848 74.9578 5.95055 74.5357 6.60898C74.0666 7.3385 73.1129 7.62134 72.3327 7.23031C71.8042 6.96601 71.2397 6.76199 70.6503 6.62443C70.4298 6.57497 70.2078 6.53324 69.9811 6.50233C69.6074 6.45133 69.2572 6.71099 69.2024 7.07884V7.09275C69.1446 7.46524 69.4104 7.80836 69.7888 7.85318C70.0108 7.87946 70.2297 7.9181 70.4439 7.9691C70.9395 8.08193 71.4117 8.25504 71.8526 8.47915C73.8415 9.49151 75.2033 11.5394 75.2033 13.9042V13.9057Z" fill="white"/>
<path d="M17.4147 13.9057C17.4147 15.5904 16.7237 17.1159 15.6042 18.2195C14.5253 19.2859 13.0446 19.9552 11.4092 19.9985C11.356 20 4.42639 19.9985 4.42639 19.9985H4.306C1.92941 19.9985 0.00156354 18.0943 0.00156354 15.7434C0.00156354 14.9258 0.234532 14.1623 0.639489 13.5147C1.09448 12.7852 2.04199 12.5023 2.81907 12.8825C3.33035 13.1329 3.8729 13.3261 4.44046 13.4575C4.69688 13.5162 4.95643 13.5626 5.22067 13.5966C5.59592 13.643 5.94772 13.3818 6.00244 13.0124V12.9985C6.06186 12.6167 5.7898 12.2767 5.40204 12.2288C5.14718 12.1979 4.89702 12.1515 4.65311 12.0897C4.19342 11.9753 3.75407 11.8099 3.34129 11.5997C1.35716 10.5842 0 8.53788 0 6.1793C0 3.16848 2.20772 0.66771 5.11279 0.174665C5.4552 0.115932 5.80544 0.0850206 6.16505 0.0850206H12.8429C12.9305 0.0803838 13.287 0.0803838 13.3745 0.0850206C14.2032 0.13448 14.9678 0.414232 15.6042 0.864C16.6986 1.63371 17.4147 2.89955 17.4147 4.33077C17.4147 5.16848 17.1693 5.95055 16.7471 6.60898C16.278 7.3385 15.3243 7.62134 14.5441 7.23031C14.0156 6.96601 13.4512 6.76199 12.8617 6.62443C12.6412 6.57497 12.4192 6.53324 12.1925 6.50233C11.8188 6.45133 11.4686 6.71099 11.4139 7.07884V7.09275C11.356 7.46524 11.6218 7.80836 12.0002 7.85318C12.2222 7.87946 12.4411 7.9181 12.6553 7.9691C13.151 8.08193 13.6232 8.25504 14.0641 8.47915C16.0529 9.49151 17.4147 11.5394 17.4147 13.9042V13.9057Z" fill="white"/>
<path d="M96 4.48527V15.4992C96 17.901 94.0956 19.9319 91.6658 19.9969C89.1454 20.0649 87.0815 18.0664 87.0815 15.5919V14.6321C87.0815 14.2179 86.7422 13.8809 86.3216 13.8809C85.9026 13.8809 85.5618 14.2163 85.5618 14.6321V15.4976C85.5618 17.8995 83.6574 19.9304 81.2276 19.9953C78.7072 20.0633 76.6433 18.0649 76.6433 15.5904V4.58264C76.6433 2.10969 78.69 0.0293141 81.1917 0.0772275C83.6136 0.125141 85.5618 2.08032 85.5618 4.48527V5.44353C85.5618 5.85775 85.9011 6.19469 86.3216 6.19469C86.7407 6.19469 87.0815 5.8593 87.0815 5.44353V4.57646C87.0815 2.17615 88.9859 0.145234 91.4125 0.0787731C93.933 0.00922132 95.9984 2.01077 95.9984 4.48527H96Z" fill="white"/>
<path d="M34.9139 15.592C34.9139 18.0278 32.9173 20 30.4547 20H23.2202C21.3955 20 19.8273 18.9165 19.1362 17.3648C18.8939 16.8222 18.7594 16.2241 18.7594 15.592V4.48531C18.7594 2.04945 20.756 0.0772705 23.2186 0.0772705C25.6812 0.0772705 27.6779 2.04945 27.6779 4.48531V11.1839H30.4531C32.9157 11.1839 34.9124 13.1561 34.9124 15.5904L34.9139 15.592Z" fill="white"/>
<path d="M51.9784 -5.22993e-05C50.6885 0.00767568 49.5299 0.557907 48.7231 1.43426L37.5766 12.5054C36.6917 13.3755 36.1757 14.6166 36.2836 15.9706C36.4524 18.0788 38.1645 19.7928 40.2941 19.9829C41.6403 20.1035 42.8802 19.6259 43.7683 18.7897L43.898 18.6584L44.844 17.7186C44.8643 17.6877 44.8877 17.6599 44.9159 17.6336L49.508 13.0741C49.7723 12.8129 50.2007 12.8114 50.4665 13.0726C50.7307 13.3338 50.7323 13.7573 50.468 14.02L48.5261 15.9474C47.9679 16.5007 47.8585 17.3709 48.2931 18.0231C49.1124 19.2534 50.54 20.051 52.152 19.9984C54.5598 19.9196 56.4408 17.901 56.4408 15.5193V4.48217C56.4408 2.05404 54.4316 -0.0139627 51.9769 -5.22993e-05H51.9784ZM54.7506 9.76193L53.3168 11.1854C53.1839 11.3183 53.0104 11.3833 52.8368 11.3833C52.6633 11.3833 52.4913 11.3183 52.3584 11.1885C52.0926 10.9273 52.091 10.5038 52.3552 10.2411L53.789 8.81911C54.0532 8.55636 54.4817 8.55482 54.7459 8.81602C55.0117 9.07723 55.0133 9.50072 54.749 9.76193H54.7506Z" fill="white"/>
</g>
<defs>
<filter id="filter0_i_378_267" x="0" y="-2" width="96" height="22" filterUnits="userSpaceOnUse" color-interpolation-filters="sRGB">
<feFlood flood-opacity="0" result="BackgroundImageFix"/>
<feBlend mode="normal" in="SourceGraphic" in2="BackgroundImageFix" result="shape"/>
<feColorMatrix in="SourceAlpha" type="matrix" values="0 0 0 0 0 0 0 0 0 0 0 0 0 0 0 0 0 0 127 0" result="hardAlpha"/>
<feOffset dy="-2"/>
<feGaussianBlur stdDeviation="2"/>
<feComposite in2="hardAlpha" operator="arithmetic" k2="-1" k3="1"/>
<feColorMatrix type="matrix" values="0 0 0 0 0 0 0 0 0 0 0 0 0 0 0.286275 0 0 0 0.2 0"/>
<feBlend mode="normal" in2="shape" result="effect1_innerShadow_378_267"/>
</filter>
<clipPath id="clip0_378_267">
<rect width="96" height="20" fill="white"/>
</clipPath>
</defs>
</svg>
