<?xml version="1.0" encoding="UTF-8"?>
<svg id="Layer_2" data-name="Layer 2" xmlns="http://www.w3.org/2000/svg" viewBox="0 0 613.99 129.4">
  <defs>
    <style>
      .cls-1 {
        fill: #fff;
      }
    </style>
  </defs>
  <g id="Layer_1-2" data-name="Layer 1">
    <g>
      <path class="cls-1" d="M480.98,89.97c0,10.9-4.42,20.77-11.58,27.91-6.9,6.9-16.37,11.23-26.83,11.51-.34,.01-44.66,0-44.66,0h-.77c-15.2,0-27.53-12.32-27.53-27.53,0-5.29,1.49-10.23,4.08-14.42,2.91-4.72,8.97-6.55,13.94-4.09,3.27,1.62,6.74,2.87,10.37,3.72,1.64,.38,3.3,.68,4.99,.9,2.4,.3,4.65-1.39,5-3.78v-.09c.38-2.47-1.36-4.67-3.84-4.98-1.63-.2-3.23-.5-4.79-.9-2.94-.74-5.75-1.81-8.39-3.17-12.69-6.56-21.37-19.8-21.37-35.06,0-19.48,14.12-35.67,32.7-38.86,2.19-.38,4.43-.58,6.73-.58h42.71c.56-.03,2.84-.03,3.4,0,5.3,.32,10.19,2.13,14.26,5.04,7,4.98,11.58,13.17,11.58,22.43,0,5.42-1.57,10.48-4.27,14.74-3,4.72-9.1,6.55-14.09,4.02-3.38-1.71-6.99-3.03-10.76-3.92-1.41-.32-2.83-.59-4.28-.79-2.39-.33-4.63,1.35-4.98,3.73v.09c-.37,2.41,1.33,4.63,3.75,4.92,1.42,.17,2.82,.42,4.19,.75,3.17,.73,6.19,1.85,9.01,3.3,12.72,6.55,21.43,19.8,21.43,35.1Z"/>
      <path class="cls-1" d="M111.38,89.97c0,10.9-4.42,20.77-11.58,27.91-6.9,6.9-16.37,11.23-26.83,11.51-.34,.01-44.66,0-44.66,0h-.77c-15.2,0-27.53-12.32-27.53-27.53,0-5.29,1.49-10.23,4.08-14.42,2.91-4.72,8.97-6.55,13.94-4.09,3.27,1.62,6.74,2.87,10.37,3.72,1.64,.38,3.3,.68,4.99,.9,2.4,.3,4.65-1.39,5-3.78v-.09c.38-2.47-1.36-4.67-3.84-4.98-1.63-.2-3.23-.5-4.79-.9-2.94-.74-5.75-1.81-8.39-3.17C8.68,68.48,0,55.24,0,39.98,0,20.5,14.12,4.32,32.7,1.13c2.19-.38,4.43-.58,6.73-.58h42.71c.56-.03,2.84-.03,3.4,0,5.3,.32,10.19,2.13,14.26,5.04,7,4.98,11.58,13.17,11.58,22.43,0,5.42-1.57,10.48-4.27,14.74-3,4.72-9.1,6.55-14.09,4.02-3.38-1.71-6.99-3.03-10.76-3.92-1.41-.32-2.83-.59-4.28-.79-2.39-.33-4.63,1.35-4.98,3.73v.09c-.37,2.41,1.33,4.63,3.75,4.92,1.42,.17,2.82,.42,4.19,.75,3.17,.73,6.19,1.85,9.01,3.3,12.72,6.55,21.43,19.8,21.43,35.1Z"/>
      <path class="cls-1" d="M613.99,29.02V100.28c0,15.54-12.18,28.68-27.72,29.1-16.12,.44-29.32-12.49-29.32-28.5v-6.21c0-2.68-2.17-4.86-4.86-4.86h0c-2.68,0-4.86,2.17-4.86,4.86v5.6c0,15.54-12.18,28.68-27.72,29.1-16.12,.44-29.32-12.49-29.32-28.5V29.65c0-16,13.09-29.46,29.09-29.15,15.49,.31,27.95,12.96,27.95,28.52v6.2c0,2.68,2.17,4.86,4.86,4.86h0c2.68,0,4.86-2.17,4.86-4.86v-5.61c0-15.53,12.18-28.67,27.7-29.1,16.12-.45,29.33,12.5,29.33,28.51Z"/>
      <path class="cls-1" d="M223.3,100.88c0,15.76-12.77,28.52-28.52,28.52h-46.27c-11.67,0-21.7-7.01-26.12-17.05-1.55-3.51-2.41-7.38-2.41-11.47V29.02c0-15.76,12.77-28.52,28.52-28.52s28.52,12.76,28.52,28.52v43.34h17.75c15.75,0,28.52,12.76,28.52,28.51Z"/>
      <path class="cls-1" d="M332.44,0c-8.25,.05-15.66,3.61-20.82,9.28l-71.29,71.63c-5.66,5.63-8.96,13.66-8.27,22.42,1.08,13.64,12.03,24.73,25.65,25.96,8.61,.78,16.54-2.31,22.22-7.72l.83-.85,6.05-6.08c.13-.2,.28-.38,.46-.55l29.37-29.5c1.69-1.69,4.43-1.7,6.13-.01,1.69,1.69,1.7,4.43,.01,6.13l-12.42,12.47c-3.57,3.58-4.27,9.21-1.49,13.43,5.24,7.96,14.37,13.12,24.68,12.78,15.4-.51,27.43-13.57,27.43-28.98V29c0-15.71-12.85-29.09-28.55-29Zm17.73,63.16l-9.17,9.21c-.85,.86-1.96,1.28-3.07,1.28s-2.21-.42-3.06-1.26c-1.7-1.69-1.71-4.43-.02-6.13l9.17-9.2c1.69-1.7,4.43-1.71,6.12-.02,1.7,1.69,1.71,4.43,.02,6.12Z"/>
    </g>
  </g>
</svg>